<svg width="92" height="92" viewBox="0 0 92 92" fill="none" xmlns="http://www.w3.org/2000/svg">
    <path
        d="M88.1661 46.0006C88.1623 37.6662 85.6877 29.5201 81.055 22.5919C76.4223 15.6637 69.8396 10.2645 62.1389 7.07688C54.4382 3.88921 45.9654 3.05616 37.7913 4.68304C29.6173 6.30993 22.1091 10.3237 16.2158 16.217C10.3226 22.1103 6.30878 29.6185 4.6819 37.7925C3.05502 45.9665 3.88806 54.4394 7.07573 62.14C10.2634 69.8407 15.6626 76.4234 22.5908 81.0561C29.5189 85.6888 37.6651 88.1635 45.9994 88.1673C57.1785 88.1536 67.8958 83.7066 75.8007 75.8018C83.7055 67.897 88.1524 57.1797 88.1661 46.0006ZM20.6477 63.2218C16.6352 57.3238 14.8062 50.2108 15.4758 43.1088C16.1454 36.0069 19.2717 29.361 24.3158 24.3169C29.3599 19.2728 36.0057 16.1465 43.1077 15.4769C50.2096 14.8073 57.3227 16.6364 63.2207 20.6488L20.6477 63.2218ZM28.7782 71.3523L71.3512 28.7793C75.3636 34.6773 77.1927 41.7904 76.5231 48.8923C75.8535 55.9943 72.7272 62.6401 67.6831 67.6842C62.639 72.7283 55.9931 75.8547 48.8912 76.5243C41.7892 77.1938 34.6762 75.3648 28.7782 71.3523Z"
        fill="#F44336" />
    <path
        d="M46 3.83398V15.3532C52.1417 15.3469 58.1426 17.1925 63.2193 20.6489L46 37.8682V54.1312L71.3518 28.7794C74.4885 33.3852 76.3092 38.7596 76.6178 44.3235C76.9265 49.8874 75.7113 55.4301 73.1032 60.3546C70.4952 65.2791 66.593 69.3988 61.8171 72.2699C57.0412 75.141 51.5725 76.6548 46 76.6482V88.1673C57.1833 88.1673 67.9086 83.7248 75.8163 75.817C83.7241 67.9092 88.1667 57.1839 88.1667 46.0007C88.1667 34.8174 83.7241 24.0921 75.8163 16.1843C67.9086 8.27653 57.1833 3.83398 46 3.83398Z"
        fill="#D32F2F" />
</svg>
